<?xml version="1.0" encoding="UTF-8"?>
<!DOCTYPE svg PUBLIC "-//W3C//DTD SVG 1.0//EN" "http://www.w3.org/TR/2001/REC-SVG-20010904/DTD/svg10.dtd">
<!-- Creator: CorelDRAW X7 -->
<svg xmlns="http://www.w3.org/2000/svg" xml:space="preserve" width="69.2802mm" height="47.6683mm" version="1.0" style="shape-rendering:geometricPrecision; text-rendering:geometricPrecision; image-rendering:optimizeQuality; fill-rule:evenodd; clip-rule:evenodd"
viewBox="0 0 18291 12585"
 xmlns:xlink="http://www.w3.org/1999/xlink">
 <defs>
  <style type="text/css">
   <![CDATA[
    .fil3 {fill:black}
    .fil1 {fill:black}
    .fil0 {fill:#FF0066}
    .fil2 {fill:black;fill-rule:nonzero}
   ]]>
  </style>
 </defs>
 <g id="Слой_x0020_1">
  <metadata id="CorelCorpID_0Corel-Layer"/>
  <path class="fil0" d="M791 12247c-179,425 197,490 357,-43 1378,-2919 6231,-6843 12440,-7167l816 -43 -1 -13 -823 42c-6418,328 -11360,4303 -12789,7224z"/>
  <g id="_836872688">
   <path class="fil0" d="M15123 1344c-240,42 -447,766 -755,882 982,1414 2399,946 3496,1875 -78,-980 957,-970 57,-1128 -1260,-221 -2266,-668 -2798,-1629z"/>
   <path class="fil0" d="M17974 2708c-683,-87 -2421,-599 -2407,-1213 4,-191 338,-353 884,-742 807,-576 1957,1171 1523,1955z"/>
   <path class="fil1" d="M17177 549c-129,-172 -84,-403 205,-525 142,-60 291,-7 413,154 158,211 54,415 -195,521 -137,58 -289,27 -423,-150z"/>
  </g>
  <path class="fil2" d="M14616 4455c-65,0 -148,47 -182,85 -71,73 -124,138 -124,277 0,113 75,195 194,195 75,0 130,-21 182,-62 68,-49 104,-125 104,-138 0,-18 -13,-51 -59,-51 -38,0 -45,24 -53,57 -15,30 -44,56 -71,72 -24,15 -49,25 -77,25 -72,0 -109,-43 -109,-116 0,-82 43,-151 84,-192 35,-38 71,-60 113,-60 41,0 50,16 57,30 6,15 12,30 38,30 48,0 70,-25 70,-58 0,-52 -75,-94 -167,-94z"/>
  <path id="1" class="fil2" d="M15217 4914c-9,10 -12,27 -12,40 0,25 25,41 63,41 33,0 71,-26 71,-53 0,-10 -9,-19 -10,-27l0 -332c0,-80 -20,-119 -84,-119 -64,0 -148,38 -225,107l-2 0 0 -283c4,-11 10,-25 10,-37 0,-30 -38,-54 -57,-54 -44,0 -76,22 -76,62 0,10 9,24 11,35l0 623c-6,7 -9,20 -9,39 0,25 13,39 50,39 38,0 80,-20 80,-50 0,-14 -4,-25 -9,-33l0 -222c66,-85 139,-108 173,-108 20,0 26,11 26,53l0 279z"/>
  <path id="2" class="fil2" d="M15803 4642c-253,29 -384,166 -384,272 0,61 50,96 111,96 100,0 183,-42 268,-136l2 0 0 55c-4,9 -9,18 -9,28 0,22 11,39 50,39 38,0 80,-7 80,-43 0,-12 -4,-24 -10,-29l0 -368c0,-69 -48,-109 -109,-109 -109,0 -193,27 -255,67 -26,-5 -54,26 -54,49 0,24 21,56 50,56 35,0 53,-24 51,-33 44,-29 99,-52 166,-52 31,0 43,16 43,47l0 61zm-3 112c0,55 -141,160 -230,160 -23,0 -40,-7 -40,-28 0,-54 110,-150 270,-169l0 37z"/>
  <path id="3" class="fil2" d="M16174 4542c2,-7 9,-20 9,-32 0,-34 -21,-52 -72,-52 -28,0 -60,15 -60,57 0,14 6,26 12,35l0 706c-6,11 -11,25 -11,44 0,36 27,44 55,44 55,0 78,-16 78,-51 0,-14 -5,-24 -11,-35l0 -280c19,17 41,25 68,25 127,0 316,-138 316,-380 0,-100 -58,-161 -141,-161 -103,0 -170,46 -241,142l-2 0 0 -62zm0 209c27,-49 59,-91 90,-122 56,-58 87,-71 121,-71 42,0 60,36 60,80 0,146 -119,273 -209,273 -25,0 -47,-13 -62,-40l0 -120z"/>
  <path id="4" class="fil2" d="M16931 4455c-158,0 -315,161 -315,385 0,123 78,168 180,168 198,0 302,-141 302,-174 0,-25 -9,-53 -54,-53 -40,0 -64,25 -60,53 -22,32 -91,80 -174,80 -52,0 -83,-24 -83,-84 0,-24 2,-46 8,-65l55 -10c279,-49 317,-98 317,-152 0,-47 -40,-148 -176,-148zm-5 91c53,0 74,33 74,61 0,17 -31,35 -243,73 36,-77 101,-134 169,-134z"/>
  <path id="5" class="fil2" d="M17543 4642c-252,29 -383,166 -383,272 0,61 49,96 110,96 100,0 183,-42 268,-136l3 0 0 55c-5,9 -10,18 -10,28 0,22 11,39 51,39 37,0 79,-7 79,-43 0,-12 -4,-24 -10,-29l0 -368c0,-69 -48,-109 -109,-109 -108,0 -192,27 -255,67 -25,-5 -54,26 -54,49 0,24 22,56 50,56 35,0 53,-24 51,-33 44,-29 100,-52 166,-52 31,0 43,16 43,47l0 61zm-2 112c0,55 -142,160 -231,160 -23,0 -40,-7 -40,-28 0,-54 111,-150 271,-169l0 37z"/>
  <path id="6" class="fil2" d="M17915 4538c5,-8 9,-17 9,-29 0,-36 -33,-48 -57,-48 -38,0 -71,11 -71,50 0,12 7,22 7,29l0 363c0,56 55,105 106,106 83,0 155,-52 207,-107l0 28c-3,7 -10,18 -10,27 0,24 16,38 54,38 51,0 77,-18 77,-45 0,-12 -6,-24 -11,-31l0 -387c9,-62 -26,-68 -65,-68 -39,0 -54,12 -54,42 0,10 4,18 7,27l0 260c-46,57 -120,107 -161,107 -19,0 -38,-22 -38,-38l0 -324z"/>
  <path class="fil1" d="M4240 3506c-176,862 -423,4118 -1866,4229 -2820,218 -3865,-7563 1062,-7734 1172,-41 1535,1562 1139,2714 255,-950 67,-2431 -1036,-2426 -2670,11 -2545,5363 -1166,5874 1213,449 1453,-2322 1544,-2760l323 103z"/>
  <path class="fil3" d="M4295 2564c21,466 59,2705 437,3052 319,294 1087,-967 1118,-1308l88 3c-168,896 -601,1653 -738,1818 -1318,1587 -1814,-2589 -1982,-3186l1077 -379z"/>
  <path class="fil3" d="M7343 2920c-282,284 -647,746 -918,907 -827,491 -1270,128 -1464,-266l251 -1700c376,782 781,1605 1522,462l609 597z"/>
  <path class="fil3" d="M7356 2903c-38,216 -718,2304 -398,2355 402,64 755,-479 1032,-1181l47 77c-472,1304 -1035,1462 -1201,1391 -694,-296 -503,-1163 -141,-2469l661 -173z"/>
  <path class="fil3" d="M9029 1495c-11,43 -30,230 -63,407 -204,1101 -162,3797 946,1670l33 40c-143,417 -419,884 -854,1145 -1502,902 -1083,-1477 -1105,-2576 -3,-175 16,-324 19,-339l1024 -347z"/>
  <path class="fil3" d="M10852 747c110,126 144,317 184,537 164,908 -64,2043 -196,2900l-892 292c76,-496 224,-2366 73,-3076 -71,-334 -167,-258 -123,-292l954 -361z"/>
  <path class="fil1" d="M8787 372c247,284 118,598 136,873l-900 302c-71,-293 -247,-712 -188,-894l952 -281z"/>
  <path class="fil1" d="M12048 1401c-225,-559 -1470,598 -1470,598l-18 -257c188,-250 1798,-2089 2286,-1056 717,1520 12,3121 -742,4185 -746,1051 -2017,1995 -2911,2574 882,-613 1878,-1465 2378,-2552 294,-639 654,-1371 639,-2245 -7,-400 24,-782 -162,-1247z"/>
 </g>
</svg>
